<svg width="18.000000" height="10.631836" viewBox="0 0 18 10.6318" fill="none" xmlns="http://www.w3.org/2000/svg" xmlns:xlink="http://www.w3.org/1999/xlink">
	<desc>
			Created with Pixso.
	</desc>
	<defs/>
	<path id="Vector" d="M17.71 0.88L17.12 0.29C16.93 0.1 16.69 0 16.42 0C16.16 0 15.91 0.1 15.73 0.29L9 7.02L2.27 0.28C2.08 0.1 1.83 0 1.57 0C1.31 0 1.06 0.1 0.87 0.28L0.28 0.87C-0.1 1.26 -0.1 1.88 0.28 2.27L8.3 10.31C8.49 10.5 8.73 10.63 9 10.63L9 10.63C9.27 10.63 9.51 10.5 9.7 10.31L17.71 2.29C17.89 2.1 17.99 1.85 18 1.58C18 1.32 17.89 1.07 17.71 0.88Z" fill="#6B5AF9" fill-opacity="1.000000" fill-rule="nonzero"/>
</svg>
