<svg width="156.596924" height="55.000000" viewBox="0 0 156.597 55" fill="none" xmlns="http://www.w3.org/2000/svg" xmlns:xlink="http://www.w3.org/1999/xlink">
	<desc>
			Created with Pixso.
	</desc>
	<defs/>
	<path id="Vector" d="M15.14 36L15.12 27.09L10.8 34.34L8.68 34.34L4.36 27.28L4.36 36L0 36L0 19.2L3.91 19.2L9.81 28.89L15.57 19.2L19.48 19.2L19.53 36L15.14 36ZM81.36 36L81.36 32.32L72.58 32.32L72.58 29.25L80.04 29.25L80.04 25.7L72.58 25.7L72.58 22.87L81.05 22.87L81.05 19.2L67.87 19.2L67.87 36L81.36 36ZM101.66 19.2L101.66 36L97.75 36L90.34 27.04L90.34 36L85.68 36L85.68 19.2L89.59 19.2L97.01 28.15L97.01 19.2L101.66 19.2ZM111.45 19.2L106.7 19.2L106.7 36L111.45 36L111.45 19.2ZM124.26 36.33Q120.9 36.33 118.87 34.69Q118.64 34.5 118.43 34.29C117.05 32.93 116.37 31 116.37 28.51L116.37 19.2L121.12 19.2L121.12 28.36C121.12 31.05 122.18 32.4 124.31 32.4Q125.52 32.4 126.27 31.81Q127.48 30.86 127.48 28.36L127.48 19.2L132.16 19.2L132.16 28.51C132.16 31 131.46 32.93 130.07 34.29C128.69 35.65 126.76 36.33 124.26 36.33ZM152.18 27.09L152.22 36L156.59 36L156.54 19.2L152.63 19.2L146.87 28.89L140.97 19.2L137.06 19.2L137.06 36L141.45 36L141.45 27.33L145.74 34.34L147.86 34.34L152.18 27.09Z" fill="#FFFFFF" fill-opacity="1.000000" fill-rule="evenodd"/>
	<rect id="Rectangle 2" x="26.199951" y="19.000000" width="7.000000" height="17.000000" fill="#6B5AF9" fill-opacity="1.000000"/>
	<rect id="Rectangle 3" x="40.199951" y="7.000000" width="7.000000" height="41.000000" fill="#6B5AF9" fill-opacity="1.000000"/>
	<rect id="Rectangle 4" x="54.199951" width="7.000000" height="55.000000" fill="#6B5AF9" fill-opacity="1.000000"/>
</svg>
