<svg width="14.000000" height="14.000000" viewBox="0 0 14 14" fill="none" xmlns="http://www.w3.org/2000/svg" xmlns:xlink="http://www.w3.org/1999/xlink">
	<desc>
			Created with Pixso.
	</desc>
	<defs/>
	<path id="Vector" d="M13.56 11.46C14.14 12.04 14.14 12.98 13.56 13.56C13.27 13.85 12.89 14 12.51 14C12.13 14 11.75 13.85 11.46 13.56L7 9.1L2.53 13.56C2.24 13.85 1.86 14 1.48 14C1.1 14 0.72 13.85 0.43 13.56C-0.15 12.98 -0.15 12.04 0.43 11.46L4.89 7L0.43 2.53C-0.15 1.95 -0.15 1.01 0.43 0.43C1.01 -0.15 1.95 -0.15 2.53 0.43L7 4.89L11.46 0.43C12.04 -0.15 12.98 -0.15 13.56 0.43C14.14 1.01 14.14 1.95 13.56 2.53L9.1 7L13.56 11.46Z" fill="#2A2367" fill-opacity="1.000000" fill-rule="nonzero"/>
</svg>
