<svg width="9.791992" height="10.879883" viewBox="0 0 9.79199 10.8799" fill="none" xmlns="http://www.w3.org/2000/svg" xmlns:xlink="http://www.w3.org/1999/xlink">
	<desc>
			Created with Pixso.
	</desc>
	<defs/>
	<path id="Vector" d="M1.63 4.35L1.63 3.26C1.63 2.39 1.97 1.56 2.58 0.95C3.2 0.34 4.03 0 4.89 0C5.76 0 6.59 0.34 7.2 0.95C7.81 1.56 8.15 2.39 8.15 3.26L8.15 4.35L8.7 4.35C8.99 4.35 9.26 4.46 9.47 4.67C9.67 4.87 9.79 5.15 9.79 5.43L9.79 9.79C9.79 10.08 9.67 10.35 9.47 10.56C9.26 10.76 8.99 10.87 8.7 10.87L1.08 10.87C0.79 10.87 0.52 10.76 0.31 10.56C0.11 10.35 0 10.08 0 9.79L0 5.43C0 4.84 0.48 4.35 1.08 4.35L1.63 4.35ZM4.35 8.01L4.35 9.24L5.43 9.24L5.43 8.01C5.64 7.89 5.8 7.7 5.9 7.48C5.99 7.26 6 7.02 5.94 6.78C5.88 6.55 5.74 6.35 5.55 6.2C5.36 6.06 5.13 5.98 4.89 5.98C4.65 5.98 4.42 6.06 4.23 6.2C4.04 6.35 3.9 6.55 3.84 6.78C3.78 7.02 3.79 7.26 3.89 7.48C3.98 7.7 4.14 7.89 4.35 8.01ZM3.26 3.26L3.26 4.35L6.52 4.35L6.52 3.26C6.52 2.83 6.35 2.41 6.05 2.1C5.74 1.8 5.32 1.63 4.89 1.63C4.46 1.63 4.04 1.8 3.74 2.1C3.43 2.41 3.26 2.83 3.26 3.26Z" fill="#FFFFFF" fill-opacity="1.000000" fill-rule="nonzero"/>
</svg>
