<svg width="113.213013" height="35.057617" viewBox="0 0 113.213 35.0576" fill="none" xmlns="http://www.w3.org/2000/svg" xmlns:xlink="http://www.w3.org/1999/xlink">
	<desc>
			Created with Pixso.
	</desc>
	<defs/>
	<path id="Vector" d="M9.65 22.94L9.63 17.27L6.88 21.89L5.53 21.89L2.78 17.39L2.78 22.94L0 22.94L0 12.23L2.49 12.23L6.25 18.41L9.92 12.23L12.42 12.23L12.45 22.94L9.65 22.94ZM51.86 20.6L51.86 22.94L43.26 22.94L43.26 12.23L51.66 12.23L51.66 14.57L46.26 14.57L46.26 16.38L51.02 16.38L51.02 18.64L46.26 18.64L46.26 20.6L51.86 20.6ZM64.8 12.23L64.8 22.94L62.31 22.94L57.58 17.24L57.58 22.94L54.61 22.94L54.61 12.23L57.11 12.23L61.83 17.94L61.83 12.23L64.8 12.23ZM78.2 12.23L78.2 22.94L75.7 22.94L70.98 17.24L70.98 22.94L68.01 22.94L68.01 12.23L70.5 12.23L75.23 17.94L75.23 12.23L78.2 12.23ZM81.4 12.23L84.43 12.23L84.43 22.94L81.4 22.94L81.4 12.23ZM92.6 23.16C91.01 23.16 89.77 22.72 88.88 21.86Q88.74 21.71 88.61 21.56Q87.57 20.29 87.57 18.17L87.57 12.23L90.6 12.23L90.6 18.08C90.6 19.79 91.27 20.65 92.63 20.65C93.98 20.65 94.65 19.79 94.65 18.08L94.65 12.23L97.63 12.23L97.63 18.17C97.63 19.76 97.19 20.99 96.3 21.86C95.42 22.72 94.19 23.16 92.6 23.16ZM110.42 22.94L110.39 17.27L107.64 21.89L106.29 21.89L103.56 17.42L103.56 22.94L100.76 22.94L100.76 12.23L103.25 12.23L107.01 18.41L110.68 12.23L113.18 12.23L113.21 22.94L110.42 22.94Z" fill="#2A2367" fill-opacity="1.000000" fill-rule="evenodd"/>
	<rect id="Rectangle 2" x="16.700195" y="12.110840" width="4.461900" height="10.836042" fill="#6B5AF9" fill-opacity="1.000000"/>
	<rect id="Rectangle 3" x="25.624023" y="4.461914" width="4.461900" height="26.133984" fill="#6B5AF9" fill-opacity="1.000000"/>
	<rect id="Rectangle 4" x="34.547852" width="4.461900" height="35.057785" fill="#6B5AF9" fill-opacity="1.000000"/>
</svg>
