<svg width="16.756348" height="16.791992" viewBox="0 0 16.7563 16.792" fill="none" xmlns="http://www.w3.org/2000/svg" xmlns:xlink="http://www.w3.org/1999/xlink">
	<desc>
			Created with Pixso.
	</desc>
	<defs/>
	<path id="Vector" d="M16.31 12.32L13.97 9.97C13.13 9.14 11.71 9.47 11.37 10.56C11.12 11.31 10.29 11.73 9.53 11.57C7.86 11.15 5.6 8.97 5.18 7.21C4.93 6.46 5.43 5.62 6.19 5.37C7.27 5.04 7.61 3.61 6.77 2.78L4.43 0.43C3.76 -0.15 2.75 -0.15 2.17 0.43L0.58 2.02C-1.01 3.7 0.75 8.13 4.68 12.07C8.61 16 13.05 17.84 14.72 16.17L16.31 14.58C16.9 13.91 16.9 12.9 16.31 12.32Z" fill="#FFFFFF" fill-opacity="1.000000" fill-rule="nonzero"/>
</svg>
